<mxfile host="Electron" modified="2023-10-28T18:13:12.813Z" agent="Mozilla/5.0 (Windows NT 10.0; Win64; x64) AppleWebKit/537.36 (KHTML, like Gecko) draw.io/22.0.3 Chrome/114.0.5735.289 Electron/25.8.4 Safari/537.36" etag="2qFvQtWcknBzz_EvC3nn" version="22.0.3" type="device">
  <diagram name="Page-1" id="T056iehUaS95CJMh_BP8">
    <mxGraphModel dx="978" dy="606" grid="1" gridSize="10" guides="1" tooltips="1" connect="1" arrows="1" fold="1" page="1" pageScale="1" pageWidth="850" pageHeight="1100" math="0" shadow="0">
      <root>
        <mxCell id="0" />
        <mxCell id="1" parent="0" />
        <mxCell id="PDTK7J7_7vNrOHm4Lep4-7" style="rounded=0;orthogonalLoop=1;jettySize=auto;html=1;entryX=0;entryY=0.5;entryDx=0;entryDy=0;fillColor=#b0e3e6;strokeColor=#0e8088;strokeWidth=4;exitX=1;exitY=0;exitDx=0;exitDy=0;endArrow=none;endFill=0;" parent="1" source="PDTK7J7_7vNrOHm4Lep4-1" target="PDTK7J7_7vNrOHm4Lep4-2" edge="1">
          <mxGeometry relative="1" as="geometry" />
        </mxCell>
        <mxCell id="PDTK7J7_7vNrOHm4Lep4-16" value="4" style="edgeLabel;html=1;align=center;verticalAlign=middle;resizable=0;points=[];" parent="PDTK7J7_7vNrOHm4Lep4-7" vertex="1" connectable="0">
          <mxGeometry x="-0.1151" y="2" relative="1" as="geometry">
            <mxPoint x="-4" y="-22" as="offset" />
          </mxGeometry>
        </mxCell>
        <mxCell id="PDTK7J7_7vNrOHm4Lep4-8" style="rounded=0;orthogonalLoop=1;jettySize=auto;html=1;exitX=1;exitY=1;exitDx=0;exitDy=0;entryX=0;entryY=0.5;entryDx=0;entryDy=0;fillColor=#b0e3e6;strokeColor=#0e8088;strokeWidth=5;endArrow=none;endFill=0;" parent="1" source="PDTK7J7_7vNrOHm4Lep4-1" target="PDTK7J7_7vNrOHm4Lep4-3" edge="1">
          <mxGeometry relative="1" as="geometry" />
        </mxCell>
        <mxCell id="PDTK7J7_7vNrOHm4Lep4-17" value="5" style="edgeLabel;html=1;align=center;verticalAlign=middle;resizable=0;points=[];" parent="PDTK7J7_7vNrOHm4Lep4-8" vertex="1" connectable="0">
          <mxGeometry x="-0.1206" y="-2" relative="1" as="geometry">
            <mxPoint x="9" y="-17" as="offset" />
          </mxGeometry>
        </mxCell>
        <mxCell id="7TlkkxIWEXhtqGjQbkQW-2" style="rounded=0;orthogonalLoop=1;jettySize=auto;html=1;exitX=1;exitY=0;exitDx=0;exitDy=0;entryX=0;entryY=0.5;entryDx=0;entryDy=0;strokeWidth=4;fillColor=#fad7ac;strokeColor=#b46504;endArrow=none;endFill=0;" parent="1" source="PDTK7J7_7vNrOHm4Lep4-1" target="PDTK7J7_7vNrOHm4Lep4-2" edge="1">
          <mxGeometry relative="1" as="geometry" />
        </mxCell>
        <mxCell id="7TlkkxIWEXhtqGjQbkQW-5" style="rounded=0;orthogonalLoop=1;jettySize=auto;html=1;exitX=1;exitY=1;exitDx=0;exitDy=0;entryX=0;entryY=0.5;entryDx=0;entryDy=0;strokeWidth=5;fillColor=#fad7ac;strokeColor=#b46504;endArrow=none;endFill=0;" parent="1" source="PDTK7J7_7vNrOHm4Lep4-1" target="PDTK7J7_7vNrOHm4Lep4-3" edge="1">
          <mxGeometry relative="1" as="geometry" />
        </mxCell>
        <mxCell id="PDTK7J7_7vNrOHm4Lep4-1" value="s" style="ellipse;whiteSpace=wrap;html=1;aspect=fixed;fillColor=#b0e3e6;strokeColor=#0e8088;" parent="1" vertex="1">
          <mxGeometry x="60" y="210" width="80" height="80" as="geometry" />
        </mxCell>
        <mxCell id="PDTK7J7_7vNrOHm4Lep4-10" style="edgeStyle=orthogonalEdgeStyle;rounded=0;orthogonalLoop=1;jettySize=auto;html=1;exitX=1;exitY=0.5;exitDx=0;exitDy=0;entryX=0;entryY=0.5;entryDx=0;entryDy=0;fillColor=#b0e3e6;strokeColor=#0e8088;strokeWidth=11;endArrow=none;endFill=0;" parent="1" source="PDTK7J7_7vNrOHm4Lep4-2" target="PDTK7J7_7vNrOHm4Lep4-4" edge="1">
          <mxGeometry relative="1" as="geometry" />
        </mxCell>
        <mxCell id="PDTK7J7_7vNrOHm4Lep4-20" value="11" style="edgeLabel;html=1;align=center;verticalAlign=middle;resizable=0;points=[];" parent="PDTK7J7_7vNrOHm4Lep4-10" vertex="1" connectable="0">
          <mxGeometry x="0.1882" y="1" relative="1" as="geometry">
            <mxPoint x="-21" y="-19" as="offset" />
          </mxGeometry>
        </mxCell>
        <mxCell id="PDTK7J7_7vNrOHm4Lep4-13" style="rounded=0;orthogonalLoop=1;jettySize=auto;html=1;entryX=0;entryY=0;entryDx=0;entryDy=0;fillColor=#b0e3e6;strokeColor=#0e8088;strokeWidth=2;exitX=1;exitY=1;exitDx=0;exitDy=0;endArrow=none;endFill=0;" parent="1" source="PDTK7J7_7vNrOHm4Lep4-2" target="PDTK7J7_7vNrOHm4Lep4-5" edge="1">
          <mxGeometry relative="1" as="geometry" />
        </mxCell>
        <mxCell id="PDTK7J7_7vNrOHm4Lep4-19" value="2" style="edgeLabel;html=1;align=center;verticalAlign=middle;resizable=0;points=[];" parent="PDTK7J7_7vNrOHm4Lep4-13" vertex="1" connectable="0">
          <mxGeometry x="0.0292" y="2" relative="1" as="geometry">
            <mxPoint x="4" y="-13" as="offset" />
          </mxGeometry>
        </mxCell>
        <mxCell id="7TlkkxIWEXhtqGjQbkQW-3" style="edgeStyle=orthogonalEdgeStyle;rounded=0;orthogonalLoop=1;jettySize=auto;html=1;strokeWidth=4;fillColor=#fad7ac;strokeColor=#b46504;endArrow=none;endFill=0;" parent="1" source="PDTK7J7_7vNrOHm4Lep4-2" target="PDTK7J7_7vNrOHm4Lep4-4" edge="1">
          <mxGeometry relative="1" as="geometry" />
        </mxCell>
        <mxCell id="7TlkkxIWEXhtqGjQbkQW-9" style="rounded=0;orthogonalLoop=1;jettySize=auto;html=1;exitX=1;exitY=1;exitDx=0;exitDy=0;entryX=0;entryY=0;entryDx=0;entryDy=0;fillColor=#fad7ac;strokeColor=#b46504;endArrow=none;endFill=0;" parent="1" source="PDTK7J7_7vNrOHm4Lep4-2" target="PDTK7J7_7vNrOHm4Lep4-5" edge="1">
          <mxGeometry relative="1" as="geometry" />
        </mxCell>
        <mxCell id="PDTK7J7_7vNrOHm4Lep4-2" value="" style="ellipse;whiteSpace=wrap;html=1;aspect=fixed;fillColor=#b0e3e6;strokeColor=#0e8088;" parent="1" vertex="1">
          <mxGeometry x="250" y="110" width="80" height="80" as="geometry" />
        </mxCell>
        <mxCell id="PDTK7J7_7vNrOHm4Lep4-9" style="edgeStyle=orthogonalEdgeStyle;rounded=0;orthogonalLoop=1;jettySize=auto;html=1;exitX=1;exitY=0.5;exitDx=0;exitDy=0;fillColor=#b0e3e6;strokeColor=#0e8088;strokeWidth=7;endArrow=none;endFill=0;" parent="1" source="PDTK7J7_7vNrOHm4Lep4-3" target="PDTK7J7_7vNrOHm4Lep4-5" edge="1">
          <mxGeometry relative="1" as="geometry" />
        </mxCell>
        <mxCell id="PDTK7J7_7vNrOHm4Lep4-21" value="7" style="edgeLabel;html=1;align=center;verticalAlign=middle;resizable=0;points=[];" parent="PDTK7J7_7vNrOHm4Lep4-9" vertex="1" connectable="0">
          <mxGeometry x="-0.1529" y="2" relative="1" as="geometry">
            <mxPoint y="-18" as="offset" />
          </mxGeometry>
        </mxCell>
        <mxCell id="PDTK7J7_7vNrOHm4Lep4-11" style="edgeStyle=orthogonalEdgeStyle;rounded=0;orthogonalLoop=1;jettySize=auto;html=1;exitX=0.5;exitY=0;exitDx=0;exitDy=0;fillColor=#b0e3e6;strokeColor=#0e8088;strokeWidth=3;endArrow=none;endFill=0;" parent="1" source="PDTK7J7_7vNrOHm4Lep4-3" target="PDTK7J7_7vNrOHm4Lep4-2" edge="1">
          <mxGeometry relative="1" as="geometry" />
        </mxCell>
        <mxCell id="PDTK7J7_7vNrOHm4Lep4-18" value="3" style="edgeLabel;html=1;align=center;verticalAlign=middle;resizable=0;points=[];" parent="PDTK7J7_7vNrOHm4Lep4-11" vertex="1" connectable="0">
          <mxGeometry x="-0.1273" y="4" relative="1" as="geometry">
            <mxPoint x="14" y="-2" as="offset" />
          </mxGeometry>
        </mxCell>
        <mxCell id="7TlkkxIWEXhtqGjQbkQW-6" style="edgeStyle=orthogonalEdgeStyle;rounded=0;orthogonalLoop=1;jettySize=auto;html=1;exitX=1;exitY=0.5;exitDx=0;exitDy=0;entryX=0;entryY=0.5;entryDx=0;entryDy=0;fillColor=#fad7ac;strokeColor=#b46504;strokeWidth=4;endArrow=none;endFill=0;" parent="1" source="PDTK7J7_7vNrOHm4Lep4-3" target="PDTK7J7_7vNrOHm4Lep4-5" edge="1">
          <mxGeometry relative="1" as="geometry" />
        </mxCell>
        <mxCell id="7TlkkxIWEXhtqGjQbkQW-8" style="edgeStyle=orthogonalEdgeStyle;rounded=0;orthogonalLoop=1;jettySize=auto;html=1;exitX=0.5;exitY=0;exitDx=0;exitDy=0;entryX=0.5;entryY=1;entryDx=0;entryDy=0;fillColor=#fad7ac;strokeColor=#b46504;endArrow=none;endFill=0;" parent="1" source="PDTK7J7_7vNrOHm4Lep4-3" target="PDTK7J7_7vNrOHm4Lep4-2" edge="1">
          <mxGeometry relative="1" as="geometry" />
        </mxCell>
        <mxCell id="PDTK7J7_7vNrOHm4Lep4-3" value="" style="ellipse;whiteSpace=wrap;html=1;aspect=fixed;fillColor=#b0e3e6;strokeColor=#0e8088;" parent="1" vertex="1">
          <mxGeometry x="250" y="300" width="80" height="80" as="geometry" />
        </mxCell>
        <mxCell id="PDTK7J7_7vNrOHm4Lep4-12" style="edgeStyle=orthogonalEdgeStyle;rounded=0;orthogonalLoop=1;jettySize=auto;html=1;fillColor=#b0e3e6;strokeColor=#0e8088;strokeWidth=1;exitX=0.5;exitY=0;exitDx=0;exitDy=0;entryX=0.5;entryY=1;entryDx=0;entryDy=0;endArrow=none;endFill=0;" parent="1" source="PDTK7J7_7vNrOHm4Lep4-5" target="PDTK7J7_7vNrOHm4Lep4-4" edge="1">
          <mxGeometry relative="1" as="geometry">
            <mxPoint x="570" y="200" as="targetPoint" />
          </mxGeometry>
        </mxCell>
        <mxCell id="7TlkkxIWEXhtqGjQbkQW-1" value="1" style="edgeLabel;html=1;align=center;verticalAlign=middle;resizable=0;points=[];" parent="PDTK7J7_7vNrOHm4Lep4-12" vertex="1" connectable="0">
          <mxGeometry x="-0.0545" y="4" relative="1" as="geometry">
            <mxPoint x="14" y="-8" as="offset" />
          </mxGeometry>
        </mxCell>
        <mxCell id="PDTK7J7_7vNrOHm4Lep4-15" style="rounded=0;orthogonalLoop=1;jettySize=auto;html=1;entryX=0;entryY=0;entryDx=0;entryDy=0;fillColor=#b0e3e6;strokeColor=#0e8088;strokeWidth=8;exitX=1;exitY=0.5;exitDx=0;exitDy=0;endArrow=none;endFill=0;" parent="1" source="PDTK7J7_7vNrOHm4Lep4-4" target="PDTK7J7_7vNrOHm4Lep4-6" edge="1">
          <mxGeometry relative="1" as="geometry" />
        </mxCell>
        <mxCell id="PDTK7J7_7vNrOHm4Lep4-23" value="8" style="edgeLabel;html=1;align=center;verticalAlign=middle;resizable=0;points=[];" parent="PDTK7J7_7vNrOHm4Lep4-15" vertex="1" connectable="0">
          <mxGeometry x="-0.0788" y="2" relative="1" as="geometry">
            <mxPoint y="-20" as="offset" />
          </mxGeometry>
        </mxCell>
        <mxCell id="7TlkkxIWEXhtqGjQbkQW-4" style="rounded=0;orthogonalLoop=1;jettySize=auto;html=1;exitX=1;exitY=0.5;exitDx=0;exitDy=0;entryX=0;entryY=0;entryDx=0;entryDy=0;strokeWidth=5;fillColor=#fad7ac;strokeColor=#b46504;endArrow=none;endFill=0;" parent="1" source="PDTK7J7_7vNrOHm4Lep4-4" target="PDTK7J7_7vNrOHm4Lep4-6" edge="1">
          <mxGeometry relative="1" as="geometry" />
        </mxCell>
        <mxCell id="PDTK7J7_7vNrOHm4Lep4-4" value="" style="ellipse;whiteSpace=wrap;html=1;aspect=fixed;fillColor=#b0e3e6;strokeColor=#0e8088;" parent="1" vertex="1">
          <mxGeometry x="500" y="110" width="80" height="80" as="geometry" />
        </mxCell>
        <mxCell id="PDTK7J7_7vNrOHm4Lep4-14" style="rounded=0;orthogonalLoop=1;jettySize=auto;html=1;exitX=1;exitY=0.5;exitDx=0;exitDy=0;entryX=0;entryY=1;entryDx=0;entryDy=0;fillColor=#b0e3e6;strokeColor=#0e8088;strokeWidth=4;endArrow=none;endFill=0;" parent="1" source="PDTK7J7_7vNrOHm4Lep4-5" target="PDTK7J7_7vNrOHm4Lep4-6" edge="1">
          <mxGeometry relative="1" as="geometry" />
        </mxCell>
        <mxCell id="PDTK7J7_7vNrOHm4Lep4-22" value="4" style="edgeLabel;html=1;align=center;verticalAlign=middle;resizable=0;points=[];" parent="PDTK7J7_7vNrOHm4Lep4-14" vertex="1" connectable="0">
          <mxGeometry x="0.0483" y="-5" relative="1" as="geometry">
            <mxPoint x="-6" y="-22" as="offset" />
          </mxGeometry>
        </mxCell>
        <mxCell id="7TlkkxIWEXhtqGjQbkQW-7" style="rounded=0;orthogonalLoop=1;jettySize=auto;html=1;exitX=1;exitY=0.5;exitDx=0;exitDy=0;entryX=0;entryY=1;entryDx=0;entryDy=0;strokeWidth=4;fillColor=#fad7ac;strokeColor=#b46504;endArrow=none;endFill=0;" parent="1" source="PDTK7J7_7vNrOHm4Lep4-5" target="PDTK7J7_7vNrOHm4Lep4-6" edge="1">
          <mxGeometry relative="1" as="geometry" />
        </mxCell>
        <mxCell id="7TlkkxIWEXhtqGjQbkQW-10" style="edgeStyle=orthogonalEdgeStyle;rounded=0;orthogonalLoop=1;jettySize=auto;html=1;exitX=0.5;exitY=0;exitDx=0;exitDy=0;fillColor=#fad7ac;strokeColor=#b46504;endArrow=none;endFill=0;" parent="1" source="PDTK7J7_7vNrOHm4Lep4-5" target="PDTK7J7_7vNrOHm4Lep4-4" edge="1">
          <mxGeometry relative="1" as="geometry" />
        </mxCell>
        <mxCell id="PDTK7J7_7vNrOHm4Lep4-5" value="" style="ellipse;whiteSpace=wrap;html=1;aspect=fixed;fillColor=#b0e3e6;strokeColor=#0e8088;" parent="1" vertex="1">
          <mxGeometry x="500" y="300" width="80" height="80" as="geometry" />
        </mxCell>
        <mxCell id="PDTK7J7_7vNrOHm4Lep4-6" value="t" style="ellipse;whiteSpace=wrap;html=1;aspect=fixed;fillColor=#b0e3e6;strokeColor=#0e8088;" parent="1" vertex="1">
          <mxGeometry x="690" y="210" width="80" height="80" as="geometry" />
        </mxCell>
      </root>
    </mxGraphModel>
  </diagram>
</mxfile>
